<svg id="attach" xmlns="http://www.w3.org/2000/svg" width="39.956" height="36.627" viewBox="0 0 39.956 36.627">
  <path id="Path_47" data-name="Path 47" d="M2.009,24.806l1.463-1.463a6.861,6.861,0,0,1,9.7,0h0l18.7,18.7A4.881,4.881,0,0,1,33.3,45.473V48.8a2.5,2.5,0,0,1-2.5,2.5H27.47a4.885,4.885,0,0,1-3.431-1.422L10.232,36.072a.832.832,0,1,1,1.157-1.2l.02.02L25.216,48.7a3.209,3.209,0,0,0,2.254.934H30.8a.832.832,0,0,0,.832-.832v-3.33a3.208,3.208,0,0,0-.934-2.254L12,24.52a5.328,5.328,0,0,0-7.349,0L3.187,25.983a5.2,5.2,0,0,0,0,7.349L24.039,54.184a7.159,7.159,0,0,0,5.1,2.111h6.659a2.5,2.5,0,0,0,2.5-2.5V47.138a7.255,7.255,0,0,0-2.111-5.1L20.221,26.083a.832.832,0,0,1,1.157-1.2l.02.02L37.357,40.865a8.932,8.932,0,0,1,2.6,6.273V53.8a4.162,4.162,0,0,1-4.162,4.162H29.135a8.824,8.824,0,0,1-6.273-2.6L2.01,34.509a6.861,6.861,0,0,1,0-9.7Z" transform="translate(0 -21.333)" fill="#1f2935"/>
  <path id="Path_48" data-name="Path 48" d="M29.135,57.96h6.659A4.162,4.162,0,0,0,39.956,53.8V47.138a8.932,8.932,0,0,0-2.6-6.273L21.4,24.906a.832.832,0,1,0-1.2,1.157l.02.02L36.18,42.042a7.256,7.256,0,0,1,2.111,5.1V53.8a2.5,2.5,0,0,1-2.5,2.5H29.135a7.159,7.159,0,0,1-5.1-2.111L3.187,33.332a5.2,5.2,0,0,1,0-7.349L4.65,24.52a5.328,5.328,0,0,1,7.349,0l18.7,18.7a3.208,3.208,0,0,1,.934,2.254V48.8a.832.832,0,0,1-.832.832H27.47a3.21,3.21,0,0,1-2.254-.934L11.409,34.9a.832.832,0,0,0-1.2,1.157l.02.02L24.039,49.879A4.885,4.885,0,0,0,27.47,51.3H30.8a2.5,2.5,0,0,0,2.5-2.5v-3.33a4.881,4.881,0,0,0-1.422-3.431l-18.7-18.7a6.861,6.861,0,0,0-9.7,0h0L2.009,24.806a6.861,6.861,0,0,0,0,9.7h0L22.862,55.361A8.824,8.824,0,0,0,29.135,57.96Z" transform="translate(0 -21.333)" fill="#1f2935"/>
</svg>
