<svg xmlns="http://www.w3.org/2000/svg" width="10.986" height="10.566" viewBox="0 0 10.986 10.566">
  <path id="star_1_" data-name="star (1)" d="M9.939,4.1a.529.529,0,0,0-.456-.364L6.607,3.475,5.47.813a.53.53,0,0,0-.974,0L3.358,3.475.482,3.736a.53.53,0,0,0-.3.927L2.355,6.569,1.714,9.393a.529.529,0,0,0,.788.572L4.983,8.483l2.48,1.483a.53.53,0,0,0,.788-.572L7.61,6.569,9.784,4.663A.53.53,0,0,0,9.939,4.1Zm0,0" transform="translate(0.511 0.009)" fill="none" stroke="#ffc107" stroke-width="1"/>
</svg>
