<svg id="smile" xmlns="http://www.w3.org/2000/svg" width="38.579" height="37.992" viewBox="0 0 38.579 37.992">
  <g id="Group_63" data-name="Group 63">
    <g id="Group_62" data-name="Group 62">
      <path id="Path_45" data-name="Path 45" d="M19.289,0A19.144,19.144,0,0,0,0,19a19.144,19.144,0,0,0,19.289,19A19.144,19.144,0,0,0,38.579,19,19.165,19.165,0,0,0,19.289,0Zm0,35.278A16.409,16.409,0,0,1,2.756,19,16.409,16.409,0,0,1,19.289,2.714,16.409,16.409,0,0,1,35.823,19,16.427,16.427,0,0,1,19.289,35.278Z"/>
    </g>
  </g>
  <g id="Group_65" data-name="Group 65" transform="translate(9.645 13.533)">
    <g id="Group_64" data-name="Group 64">
      <circle id="Ellipse_20" data-name="Ellipse 20" cx="2.756" cy="2.756" r="2.756"/>
    </g>
  </g>
  <g id="Group_67" data-name="Group 67" transform="translate(23.423 13.533)">
    <g id="Group_66" data-name="Group 66">
      <circle id="Ellipse_21" data-name="Ellipse 21" cx="2.756" cy="2.756" r="2.756"/>
    </g>
  </g>
  <g id="Group_69" data-name="Group 69" transform="translate(13.74 22.993)">
    <g id="Group_68" data-name="Group 68">
      <path id="Path_46" data-name="Path 46" d="M181.015,290.3a1.378,1.378,0,0,0-1.928-.28q-.04.03-.077.062h0a5.546,5.546,0,0,1-6.542,0,1.378,1.378,0,0,0-1.8,2.085q.037.032.077.062a8.227,8.227,0,0,0,9.992,0A1.378,1.378,0,0,0,181.015,290.3Z" transform="translate(-170.189 -289.75)"/>
    </g>
  </g>
</svg>
