<svg xmlns="http://www.w3.org/2000/svg" width="39.726" height="29.794" viewBox="0 0 39.726 29.794">
  <g id="Layer_2" data-name="Layer 2" transform="translate(0)">
    <g id="Layer_1" data-name="Layer 1" transform="translate(0)">
      <path id="Path_7803" data-name="Path 7803" d="M34.76,0H4.966A4.966,4.966,0,0,0,0,4.966V24.829a4.513,4.513,0,0,0,.3,1.639,4.965,4.965,0,0,0,4.668,3.327H34.76a5.015,5.015,0,0,0,4.171-2.266,5.077,5.077,0,0,0,.795-2.7V4.966A4.966,4.966,0,0,0,34.76,0ZM20.483,26.486H4.966a1.459,1.459,0,0,1-.515-.1l8.988-12.265,7.368,7.362,2.334,2.334,2.65,2.669Zm15.934-1.657a1.664,1.664,0,0,1-1.657,1.657H30.489l-4.966-5L29.757,17.3l6.691,7.449Zm0-5.046-5.382-6a1.688,1.688,0,0,0-1.173-.546,1.57,1.57,0,0,0-1.21.484l-5.475,5.425-8.758-8.74a1.763,1.763,0,0,0-1.31-.478,1.713,1.713,0,0,0-1.21.677L3.308,22.346V4.966A1.664,1.664,0,0,1,4.966,3.308H34.76a1.664,1.664,0,0,1,1.657,1.657Z" transform="translate(0)" fill="#35353d"/>
      <circle id="Ellipse_2976" data-name="Ellipse 2976" cx="3.308" cy="3.308" r="3.308" transform="translate(19.863 8.28)" fill="#35353d"/>
    </g>
  </g>
</svg>
